<?xml version="1.0" encoding="UTF-8" standalone="no"?>
<svg
   xmlns:dc="http://purl.org/dc/elements/1.1/"
   xmlns:cc="http://creativecommons.org/ns#"
   xmlns:rdf="http://www.w3.org/1999/02/22-rdf-syntax-ns#"
   xmlns:svg="http://www.w3.org/2000/svg"
   xmlns="http://www.w3.org/2000/svg"
   viewBox="0 0 634.66669 453.57333"
   xml:space="preserve"
   id="svg2"
   version="1.1"><metadata
     id="metadata8"><rdf:RDF><cc:Work
         rdf:about=""><dc:format>image/svg+xml</dc:format><dc:type
           rdf:resource="http://purl.org/dc/dcmitype/StillImage" /></cc:Work></rdf:RDF></metadata><defs
     id="defs6"><clipPath
       id="clipPath18"
       clipPathUnits="userSpaceOnUse"><path
         id="path16"
         d="M 0,340.18 H 476 V 0 H 0 Z" /></clipPath></defs><g
     transform="matrix(1.3333333,0,0,-1.3333333,0,453.57333)"
     id="g10"><g
       id="g12"><g
         clip-path="url(#clipPath18)"
         id="g14"><g
           transform="translate(230.6421,170.6362)"
           id="g20"><path
             id="path22"
             style="fill:#000000;fill-opacity:1;fill-rule:evenodd;stroke:none"
             d="M 0,0 C 1.923,1.703 3.713,3.288 5.531,4.897 3.896,6.041 2.304,6.042 0.959,4.987 -0.546,3.81 -0.915,2.125 0,0 M 1.023,-1.163 C 2.947,-2.297 4.615,-2.185 5.936,-0.933 7.27,0.332 7.517,1.852 6.593,3.752 4.758,2.134 2.958,0.544 1.023,-1.163 m -28.312,96.615 c -2.242,-0.081 -4.786,-0.609 -7.193,-2.003 -4.127,-2.389 -6.487,-6.011 -7.085,-10.556 -0.523,-3.963 0.215,-7.907 2.001,-11.571 2.961,-6.075 8.662,-8.801 14.597,-8.192 10.69,1.098 16.711,11.078 13.109,21.212 -2.267,6.37 -8.673,11.126 -15.429,11.11 m 45.028,-198.644 c -1.613,7.547 -3.212,15.004 -4.801,22.46 -5.214,24.464 -10.431,48.928 -15.636,73.394 -2.35,11.044 -4.538,22.124 -7.051,33.131 -1.923,8.421 -5.267,16.287 -10.289,23.395 -2.771,3.922 -6.434,6.638 -10.702,8.726 -4.404,2.153 -8.366,4.969 -11.395,8.896 -3.788,4.916 -5.056,10.417 -3.718,16.529 0.874,3.992 2.34,7.69 4.374,11.255 1.365,2.395 1.371,5.101 -0.303,7.592 -3.799,5.653 -11.384,8.726 -17.945,7.165 -0.903,-0.215 -1.66,-0.196 -1.972,0.707 -0.339,0.98 0.265,1.513 1.194,1.849 4.952,1.791 9.734,1.285 14.42,-0.946 5.011,-2.382 9.08,-5.996 12.938,-9.878 0.692,-0.698 1.349,-0.963 2.333,-0.864 14.44,1.447 25.742,-9.797 24.335,-24.218 -0.451,-4.617 -2.653,-8.452 -5.584,-11.934 -0.924,-1.098 -1.801,-2.237 -2.659,-3.389 -1.376,-1.851 -1.844,-3.979 -0.858,-6.041 3.121,-6.52 6.23,-13.056 9.679,-19.406 2.713,-4.996 7.338,-8.126 12.236,-10.76 1.272,-0.683 1.671,-1.548 1.826,-2.884 1.712,-14.626 3.483,-29.244 5.229,-43.864 1.524,-12.75 3.04,-25.499 4.554,-38.25 1.435,-12.059 2.868,-24.12 4.295,-36.18 0.397,-3.348 -1.07,-5.511 -4.5,-6.485" /></g><g
           transform="translate(136.668,240.9663)"
           id="g24"><path
             id="path26"
             style="fill:#000000;fill-opacity:1;fill-rule:evenodd;stroke:none"
             d="m 0,0 c 4.185,0 8.148,0.024 12.112,-0.041 0.367,-0.005 15.868,-58.337 15.977,-58.718 2.008,-6.995 3.941,-14.012 5.93,-21.013 1.608,-5.665 3.291,-11.309 4.905,-16.972 4.606,-16.142 9.207,-32.286 13.783,-48.438 2.157,-7.613 4.208,-15.256 6.386,-22.86 1.103,-3.849 3.82,-6.251 7.424,-7.795 2.791,-1.195 2.773,-1.239 1.963,-4.173 -0.316,-1.147 -0.552,-2.323 -0.984,-3.423 -0.162,-0.409 -0.784,-0.9 -1.2,-0.906 -4.762,-0.063 -9.526,-0.007 -14.289,-0.06 -1.084,-0.013 -1.16,0.679 -1.357,1.39 -1.854,6.627 -3.674,13.262 -5.569,19.877 C 35.19,-128.626 25.279,-94.126 15.379,-59.623 15.229,-59.104 0.189,-0.75 0,0" /></g><g
           transform="translate(136.668,240.9663)"
           id="g28"><path
             id="path30"
             style="fill:none;stroke:#000000;stroke-width:1;stroke-linecap:butt;stroke-linejoin:miter;stroke-miterlimit:10;stroke-dasharray:none;stroke-opacity:1"
             d="m 0,0 c 4.185,0 8.148,0.024 12.112,-0.041 0.367,-0.005 15.868,-58.337 15.977,-58.718 2.008,-6.995 3.941,-14.012 5.93,-21.013 1.608,-5.665 3.291,-11.309 4.905,-16.972 4.606,-16.142 9.207,-32.286 13.783,-48.438 2.157,-7.613 4.208,-15.256 6.386,-22.86 1.103,-3.849 3.82,-6.251 7.424,-7.795 2.791,-1.195 2.773,-1.239 1.963,-4.173 -0.316,-1.147 -0.552,-2.323 -0.984,-3.423 -0.162,-0.409 -0.784,-0.9 -1.2,-0.906 -4.762,-0.063 -9.526,-0.007 -14.289,-0.06 -1.084,-0.013 -1.16,0.679 -1.357,1.39 -1.854,6.627 -3.674,13.262 -5.569,19.877 C 35.19,-128.626 25.279,-94.126 15.379,-59.623 15.229,-59.104 0.189,-0.75 0,0 Z" /></g><g
           transform="translate(271.146,222.8521)"
           id="g32"><path
             id="path34"
             style="fill:#918f90;fill-opacity:1;fill-rule:evenodd;stroke:none"
             d="m 0,0 c -2.221,-1.405 -4.412,-2.624 -6.418,-4.099 -4.049,-2.978 -6.84,-7.094 -9.516,-11.241 -3.841,-5.958 -6.56,-12.458 -8.816,-19.165 -0.314,-0.932 -0.983,-1.79 -1.644,-2.546 -0.742,-0.852 -1.662,-1.549 -2.59,-2.392 -0.171,1.428 -0.354,2.949 -0.534,4.47 -0.239,2.016 -0.469,4.034 -0.714,6.05 -0.157,1.282 -0.166,2.656 -2.159,2.957 0.557,0.394 0.779,0.576 1.023,0.718 4.824,2.81 7.818,7.283 10.754,11.81 2.256,3.48 4.527,6.949 6.773,10.434 0.427,0.662 0.74,1.399 1.162,2.067 0.113,0.181 -0.256,1.484 0.063,1.643 -0.066,1.015 0.681,2.667 1.083,4.833" /></g><g
           transform="translate(220.6997,144.2422)"
           id="g36"><path
             id="path38"
             style="fill:#918f90;fill-opacity:1;fill-rule:evenodd;stroke:none"
             d="M 0,0 C 1.201,4.864 2.408,9.727 3.7,14.93 4.376,11.253 4.92,7.899 5.617,4.579 6.521,0.275 7.443,-4.029 8.565,-8.277 c 0.48,-1.815 -0.393,-3.2 -0.861,-4.704 -1.04,-3.359 -2.159,-6.701 -3.445,-9.97 -0.486,-1.237 -1.386,-2.389 -2.324,-3.361 -3.198,-3.304 -6.493,-6.515 -9.766,-9.746 -0.209,-0.205 -0.557,-0.268 -1.185,-0.556 0.316,1.369 0.541,2.404 0.794,3.433 1.666,6.796 3.327,13.593 5.04,20.378" /></g><g
           transform="translate(212.3579,105.7783)"
           id="g40"><path
             id="path42"
             style="fill:#918f90;fill-opacity:1;fill-rule:evenodd;stroke:none"
             d="m 0,0 c 0.926,-0.856 1.633,-1.446 2.255,-2.115 0.309,-0.336 0.427,-0.843 0.696,-1.227 0.26,-0.367 0.552,-0.881 0.918,-0.972 1.443,-0.363 1.465,-1.218 1.062,-2.374 -1.598,-4.576 -3.171,-9.159 -4.756,-13.738 -1.6,-4.621 -3.2,-9.24 -4.809,-13.858 -0.107,-0.313 -0.279,-0.603 -0.42,-0.902 -2.825,1.213 -3.986,3.677 -3.202,6.817 1.469,5.886 2.978,11.762 4.454,17.645 0.756,3.007 1.504,6.017 2.203,9.038 C -1.355,-0.642 -1.054,0.201 0,0" /></g><g
           transform="translate(222.9741,115.583)"
           id="g44"><path
             id="path46"
             style="fill:#918f90;fill-opacity:1;fill-rule:evenodd;stroke:none"
             d="m 0,0 c -1.587,-4.634 -3.873,-10.922 -5.475,-15.601 -1.226,1.206 -2.385,1.398 -3.535,2.521 -0.29,0.282 -1.112,1.932 -1.424,2.191 -0.608,0.506 -2.712,-3.478 -0.856,2.934 1.5,2.381 3.869,7.037 6.444,9.557 0.365,0.357 6.032,3.149 6.503,3.396 C 1.771,4.863 -0.116,0.135 0,0" /></g><g
           transform="translate(246.0386,187.5522)"
           id="g48"><path
             id="path50"
             style="fill:#918f90;fill-opacity:1;fill-rule:evenodd;stroke:none"
             d="M 0,0 C -0.745,-2.16 -1.618,-5.285 -2.301,-7.266 -3.396,-6.054 -6.353,-1.062 0,0" /></g><g
           transform="translate(231.6655,169.4731)"
           id="g52"><path
             id="path54"
             style="fill:#ffffff;fill-opacity:1;fill-rule:evenodd;stroke:none"
             d="M 0,0 C 1.935,1.707 3.734,3.297 5.569,4.916 6.493,3.015 6.246,1.495 4.912,0.23 3.592,-1.022 1.924,-1.134 0,0" /></g><g
           transform="translate(230.6421,170.6362)"
           id="g56"><path
             id="path58"
             style="fill:#ffffff;fill-opacity:1;fill-rule:evenodd;stroke:none"
             d="M 0,0 C -0.915,2.125 -0.546,3.81 0.959,4.987 2.304,6.042 3.896,6.041 5.531,4.897 3.713,3.288 1.923,1.703 0,0" /></g><g
           transform="translate(290.9585,242.9897)"
           id="g60"><path
             id="path62"
             style="fill:none;stroke:#918f90;stroke-width:4.5;stroke-linecap:butt;stroke-linejoin:miter;stroke-miterlimit:10;stroke-dasharray:none;stroke-opacity:1"
             d="m 0,0 c 0,-10.262 -8.21,-18.583 -18.341,-18.583 -10.127,0 -18.338,8.321 -18.338,18.583 0,10.264 8.211,18.584 18.338,18.584 C -8.21,18.584 0,10.264 0,0 Z" /></g><g
           transform="translate(269.3813,73.6602)"
           id="g64"><path
             id="path66"
             style="fill:#000000;fill-opacity:1;fill-rule:evenodd;stroke:#000000;stroke-width:1;stroke-linecap:butt;stroke-linejoin:miter;stroke-miterlimit:10;stroke-dasharray:none;stroke-opacity:1"
             d="m 0,0 -20.219,64.104 11.471,-80.166 c 0.2,-0.781 0.532,-1.014 1.324,-1.008 4.613,0.03 9.23,0.054 13.843,-0.037 1.265,-0.025 1.803,0.349 2.147,1.577 4.07,14.473 8.188,28.934 12.308,43.394 6.309,22.147 12.63,44.291 18.942,66.437 1.424,4.993 20.115,68.699 21.582,73.886 -3.824,0 -7.486,-0.08 -11.145,0.04 -1.474,0.047 -2.005,-0.459 -2.392,-1.836 C 42.409,146.986 19.602,68.893 14.118,49.495 9.796,34.2 5.511,18.895 1.202,3.596 0.861,2.385 0.468,1.191 0.099,-0.014 0,0 -0.102,0.015 -0.201,0.028" /></g></g></g></g></svg>